<?xml version="1.0"?>
<svg fill="currentColor" id="Layer_1" data-name="Layer 1" xmlns="http://www.w3.org/2000/svg" viewBox="0 0 2471.12 123.78">
  <g>
    <path d="M1.24,3.9c10.69-3.19,20.07-1.14,30.2-.33.19,30.19.38,60.04.58,90.57,3.29.67,5.99,1.7,8.66,1.68,12.64-.11,25.27-.64,37.9-.74,8.28-.06,16.56.35,25.46.56v24.04c-2.39.1-4.92.29-7.46.32-11.94.17-23.87.21-35.8.44-17.64.33-35.29.8-52.92,1.2-2.12.04-4.23,0-7.16,0-.27-3-.74-5.5-.7-7.98.25-13.77.75-27.55.91-41.33.23-20.2.23-40.42.32-60.64V3.89h0Z"></path>
    <path d="M135.64,3.75c19.7-2.56,24.59-2.55,31.28.09,1.54,38.65-2.38,77.43-.98,116.98-10.44,1.61-20.12.37-29.31.63-2.76-2.57-2.1-5.35-2.08-7.85.2-16.15.66-32.27.82-48.41.19-17.58.18-35.17.26-52.74V3.75Z"></path>
    <path d="M337.74,2.69v23.93c-2.13.15-4.21.41-6.27.43-13.37.15-26.75.23-40.12.37-8.91.09-9.44.63-9.44,9.26-.03,25.22-.04,50.44-.05,75.67v8.51c-10.55.38-20.37,1.82-30.69-1.22-.14-3.11-.38-5.9-.4-8.69-.14-22.13-.16-44.25-.41-66.38-.06-5.42-.76-10.84-1.21-16.75-17.08-1.09-33.75.06-50.21-.58-1.57-5.65-1.64-16.87-.12-24.28,2.5-.32,5.25-1,7.99-.98,12.64.12,25.28.61,37.93.67,22.89.1,45.8.03,68.69-.05,5-.02,10-.53,15.01-.57,3-.03,5.99.42,9.32.68v-.03Z"></path>
    <path d="M508.2,3.09v23.93c-2.13.15-4.21.41-6.27.43-13.37.15-26.75.23-40.12.37-8.91.09-9.44.63-9.44,9.26-.03,25.22-.04,50.44-.05,75.67v8.51c-10.55.38-20.37,1.82-30.69-1.22-.14-3.11-.38-5.9-.4-8.69-.14-22.13-.16-44.25-.41-66.38-.06-5.42-.76-10.84-1.21-16.75-17.08-1.09-33.75.06-50.21-.58-1.57-5.65-1.64-16.87-.12-24.28,2.5-.32,5.25-1,7.99-.98,12.64.12,25.28.61,37.93.67,22.89.1,45.8.03,68.69-.05,5-.02,10-.53,15.01-.57,3-.03,5.99.42,9.32.68v-.03Z"></path>
    <path d="M539.88,3.9c10.69-3.19,20.07-1.14,30.2-.33.19,30.19.38,60.04.58,90.57,3.29.67,5.99,1.7,8.66,1.68,12.64-.11,25.27-.64,37.9-.74,8.28-.06,16.56.35,25.46.56v24.04c-2.39.1-4.92.29-7.46.32-11.94.17-23.87.21-35.8.44-17.64.33-35.29.8-52.92,1.2-2.12.04-4.23,0-7.16,0-.27-3-.74-5.5-.7-7.98.25-13.77.76-27.55.91-41.33.23-20.2.23-40.42.32-60.64V3.89h0Z"></path>
    <path d="M791.55,3.98v24.48c-2.12.13-4.42.38-6.71.38-22.93.05-45.85.05-68.77.07-3.31,0-6.7-.36-9.83,2.27v15.83c17.69,3.48,35.62,1.2,53.25,2.4,3.22,5.88,3.39,17.28.15,25.4-5.37,0-11.06-.1-16.75.03-10.72.25-21.44.51-32.15,1.03-5.36.26-6.17.85-6.72,6.29-.42,4.16.38,8.42.65,12.92,1.7.38,3.03.95,4.35.92,15.51-.3,31-.77,46.51-1.03,11.46-.19,22.92-.15,34.38-.15.89,0,1.81.43,3.33.82,0,8,.86,15.9-.7,24.36-39.85-.58-79.07,1.87-119.02,1.63-.64-20.13-.39-39.56-.05-58.99.33-19.45.94-38.89,1.45-59.08,2.28-.18,4.59-.53,6.88-.53,14.81-.03,29.61.03,44.41.03s30.07,0,45.1-.07c2.86-.02,5.7-.46,8.54-.71,3.8-.35,7.6-.64,11.67,1.68h.02Z"></path>
  </g>
  <g>
    <path d="M1061.05,2.85v8.14c.07,27.26.13,54.51.22,81.77.02,8.17.11,16.33.11,24.5,0,1.38-.35,2.77-.63,4.84-9.96-.27-19.72,1.78-29.52-1.18-.99-18.29.78-36.16-2.55-54.21-3.06.92-3.7,3.61-4.86,5.72-7.43,13.54-15.06,26.97-22.04,40.72-2.91,5.73-6.59,8.41-13.01,7.96-5.02-.35-10.08-.07-15.23-.07-10.1-18.47-20.02-36.61-30.14-55.09-3.31,6.61-4.18,12.55-4.18,26.85v27.9c-10.01,3.38-19.78-.75-30.2.89-1.24-39.97.73-79.12.9-118.42,13.87-3.07,27.32-1.27,41.46-.57,1.63,2.72,3.6,5.72,5.26,8.87,7.29,13.89,14.42,27.84,21.72,41.71,1.21,2.32,2.67,4.64,4.5,6.47,3.19,3.16,7.3,2.68,9.97-.95,1.14-1.53,1.94-3.33,2.73-5.09,6.57-14.48,13.1-29,19.65-43.48,1.09-2.4,2.28-4.75,3.33-6.96,12.72-2.42,28.14-2.6,42.49-.35l.03.03Z"></path>
    <path d="M1160.02,123.19c-5.88,1.12-12.38-.8-19.04-2.13-13.04-2.6-22.92-9.86-31.06-19.89-2.58-3.18-4.97-6.53-7.41-9.82-3.55-4.78-4.85-10.26-5.91-16.07-2.09-11.36-1.79-22.2,1.79-33.38,3.72-11.63,10.63-20.65,19.97-27.69,7.05-5.32,14.96-9.31,23.65-12.18,9.08-3.01,17.27-1.62,26.11-.11,10.15,1.74,18.66,5.97,26.71,12.09,9.54,7.26,16.29,16.47,20.75,27.36,2.96,7.21,4.27,14.77,2.86,22.64-.73,4.02-1.15,8.09-1.74,12.13-2.22,15.37-11.61,26.2-23.17,35.45-3.93,3.14-8.5,5.56-12.99,7.89-7.26,3.77-8.69,3.88-20.53,3.71h.01ZM1189.36,61.32c-.15-2.16-.06-4.38-.47-6.48-1.36-6.91-2.93-14.23-9.2-18.2-17.29-10.99-28.32-11.36-43.72-1.5-11.21,7.17-15.28,18.85-12.67,31.83,1.9,9.47,5.79,16.3,14.41,21.84,15.1,9.69,33.59,8.03,44.67-5.93,4.98-6.29,7.14-13.56,6.98-21.56h.02Z"></path>
    <path d="M1249.61,2.77c10.61-.25,20.3-3.11,30.01-.23,5.87,13.95,9.03,28.3,12.91,42.43,4.07,14.86,8.3,29.66,12.52,44.47.52,1.84,1.12,3.72,2.09,5.34,1.68,2.81,4.46,3.41,7.56,3.18,3.11-.23,3.76-2.43,4.39-4.9,2.78-10.95,5.87-21.84,8.45-32.84,4.01-17.1,7.68-34.27,11.54-51.39.46-2.06,1.29-4.04,2.01-6.31h28.76c.67,3.78-.34,6.95-1.14,10.13-7.14,28.22-14.41,56.41-21.39,84.67-2.03,8.16-3.35,16.49-7.02,24.65-1.75.14-3.63.41-5.5.41-14.29.07-28.59.11-42.88.13-6.72.01-6.82-.03-8.8-6.07-6.2-19-12.65-37.92-18.48-57.03-5.26-17.26-9.85-34.71-14.68-52.08-.31-1.09-.19-2.3-.36-4.58v.02Z"></path>
    <path d="M1409.07,3.05c19.98-2.59,24.94-2.58,31.73.09,1.56,39.2-2.41,78.54-.99,118.65-10.59,1.63-20.41.37-29.73.64-2.8-2.6-2.13-5.43-2.11-7.96.21-16.38.67-32.73.83-49.11.19-17.83.18-35.67.27-53.49V3.05Z"></path>
    <path d="M1607.23,3.19v24.83c-2.15.13-4.48.39-6.81.39-23.26.05-46.5.05-69.76.07-3.36,0-6.8-.36-9.97,2.3v16.05c17.94,3.53,36.13,1.21,54.01,2.44,3.26,5.96,3.44,17.52.16,25.76-5.45,0-11.22-.11-16.99.03-10.87.26-21.74.52-32.61,1.04-5.44.27-6.26.86-6.82,6.38-.43,4.22.38,8.54.66,13.1,1.72.39,3.08.97,4.41.94,15.73-.31,31.44-.78,47.17-1.05,11.62-.19,23.24-.16,34.87-.16.91,0,1.83.43,3.38.83,0,8.11.87,16.13-.71,24.71-40.42-.59-80.2,1.89-120.71,1.65-.65-20.42-.4-40.13-.06-59.83.34-19.73.96-39.45,1.48-59.93,2.32-.18,4.65-.53,6.98-.53,15.02-.03,30.03.03,45.05.03s30.5,0,45.74-.07c2.9-.02,5.78-.46,8.67-.72,3.85-.35,7.71-.65,11.84,1.71h.02Z"></path>
  </g>
  <path d="M1817.8,56.29c12.83,8.55,18.2,20.92,15.96,36.77-.69,4.99-3.53,9.58-8.87,14.45-8.62,7.86-19.52,12.78-33.29,15.02-4.91.8-9.67,1.19-14.34,1.19-12.28,0-23.64-2.76-33.95-8.27-7.57-4.05-13.29-9.77-17.05-17.01-.81-1.57-1.43-3.29-1.77-4.95-.65-3.13.86-5.67,3.95-6.62,3.79-1.18,7.63-2.29,11.45-3.4l3.86-1.13c4.04-1.19,6.32,1.85,7.13,3.01.57.79,1.12,1.6,1.65,2.44,1.29,1.96,2.5,3.79,4.09,5.23,8.12,7.37,26.68,10.48,38.46,3.48,4.3-2.57,6.86-6.42,8.08-12.16.46-2.2-.28-4.2-2.36-6.3-3.85-3.92-8.84-6.15-15.2-6.8-4.38-.46-8.77-.89-13.16-1.3-5.28-.5-10.54-1.01-15.8-1.58-10.87-1.18-19.58-5.66-26.62-13.68-7.16-8.15-6.23-17.22-4.39-25.02,2.19-9.24,9.27-15.23,15.18-19.4,8.85-6.26,19.7-9.67,32.22-10.13,6.79-.23,13.44.23,19.87,1.4,13.01,2.37,23.78,9.98,32.9,23.24.48.68.68,1.44.92,2.23.07.31.17.64.3,1.01l.34,1.02-.91.62c-4.61,3.11-9.74,4.96-14.68,6.75l-2.76,1.01c-3.02,1.13-6.12.31-8.31-2.15-.4-.45-.84-.89-1.26-1.33-.41-.4-.8-.81-1.2-1.24-8.08-8.84-18.66-11.3-33.17-7.81-4.74,1.14-7.51,4.4-8.42,9.95-.45,2.71.01,5.04,1.3,6.7,1.26,1.63,3.37,2.68,6.11,3.03,7.37.95,13.81,1.41,19.64,1.41h.74c11.85,0,23.07,3.47,33.35,10.32h0Z"></path>
  <path d="M1999.65,1.73v24.37c-2.17.16-4.29.41-6.39.44-13.62.15-27.25.23-40.86.38-9.08.1-9.61.64-9.61,9.43-.03,25.69-.04,51.37-.05,77.06v8.66c-10.74.39-20.75,1.85-31.26-1.24-.15-3.16-.39-6.01-.4-8.85-.15-22.53-.17-45.07-.41-67.6-.06-5.52-.78-11.04-1.23-17.06-17.4-1.11-34.37.06-51.14-.59-1.6-5.75-1.67-17.18-.12-24.72,2.54-.32,5.34-1.02,8.14-.99,12.88.12,25.75.62,38.62.68,23.31.11,46.64.03,69.95-.05,5.1-.02,10.18-.54,15.29-.58,3.05-.03,6.1.42,9.49.69v-.03Z"></path>
  <path d="M2087.46,123.44c-5.9,1.12-12.43-.8-19.12-2.14-13.09-2.62-23.01-9.9-31.19-19.97-2.59-3.2-4.99-6.56-7.44-9.86-3.57-4.8-4.87-10.31-5.94-16.13-2.1-11.4-1.79-22.29,1.8-33.51,3.73-11.68,10.67-20.73,20.05-27.8,7.08-5.34,15.02-9.34,23.75-12.23,9.12-3.02,17.34-1.63,26.21-.11,10.19,1.75,18.74,6,26.81,12.14,9.58,7.29,16.36,16.54,20.83,27.47,2.97,7.24,4.29,14.83,2.87,22.73-.73,4.04-1.16,8.12-1.74,12.18-2.22,15.44-11.65,26.31-23.26,35.59-3.95,3.15-8.53,5.58-13.04,7.92-7.29,3.78-8.72,3.9-20.61,3.72h.01ZM2116.92,61.31c-.15-2.17-.06-4.39-.48-6.51-1.36-6.94-2.95-14.28-9.24-18.28-17.36-11.04-28.44-11.4-43.9-1.51-11.26,7.2-15.34,18.92-12.73,31.96,1.91,9.51,5.81,16.37,14.46,21.93,15.16,9.73,33.73,8.06,44.85-5.95,5-6.32,7.17-13.61,7.01-21.65h.02Z"></path>
  <path d="M2285.91,75.29c6.17,15.82,15.49,30.3,22.6,46.95-7.54.75-14.01.27-20.48-.15-2.88-.18-5.87-.63-8.66-.15-3.35.56-4.98-.7-6.22-3.49-4.92-11.05-9.91-22.08-14.88-33.1-.59-1.33-1.26-2.62-1.76-3.98-1.18-3.26-3.15-5.26-6.9-5.4-4.83-.2-9.65-1.02-14.46-.99-5.31.02-10.61.72-15.96,1.12-2.91,2.86-3.12,6.4-3.11,10.09.04,9.69.01,19.37-.04,29.06,0,2.12-.26,4.22-.39,6.14-5.89,1.57-20.42,1.91-29.73.78-.18-1.51-.57-3.13-.56-4.74.13-24.7.34-49.4.48-74.09.05-9.66-.05-19.31-.08-28.97,0-1.69-.07-3.39-.05-5.09.07-6.39.46-6.79,7.13-7.19,1.7-.11,3.39-.16,5.1-.19,14.07-.34,28.14-1.13,42.21-.91,13.08.22,26.31.58,39.17,2.64,15.4,2.49,26.14,12.28,29.63,27.47,3.04,13.24-1.06,26.39-14.25,36.41-3.05,2.31-6.83,3.78-8.77,7.77h0ZM2217.49,27.38c.28,3.59.49,6.68.78,9.75.32,3.28.73,6.56,1.08,9.73,15.12,0,29.67.15,44.19-.1,3.81-.06,7.75-.88,11.34-2.16,6.06-2.16,7.16-6.96,3.3-11.97-2.99-3.88-6.81-5.99-11.83-6.02-5.58-.03-11.21.12-16.73-.51-10.46-1.21-20.75-.6-32.15,1.28h.01Z"></path>
  <path d="M2469.16,2.95v24.93c-2.16.13-4.5.39-6.84.39-23.35.05-46.69.05-70.04.07-3.37,0-6.82-.36-10.02,2.31v16.12c18.01,3.54,36.28,1.22,54.23,2.45,3.28,5.99,3.45,17.59.16,25.86-5.47,0-11.27-.11-17.06.03-10.91.26-21.83.52-32.74,1.05-5.46.27-6.29.87-6.85,6.41-.43,4.24.39,8.58.67,13.16,1.73.39,3.09.97,4.43.94,15.79-.31,31.57-.78,47.36-1.05,11.67-.19,23.34-.16,35.01-.16.91,0,1.84.44,3.39.84,0,8.14.88,16.2-.72,24.81-40.58-.59-80.52,1.9-121.2,1.66-.65-20.51-.4-40.29-.06-60.07.34-19.81.96-39.61,1.48-60.17,2.32-.18,4.67-.54,7.01-.54,15.08-.03,30.15.03,45.23.03s30.63,0,45.93-.07c2.91-.02,5.81-.46,8.7-.72,3.87-.35,7.74-.65,11.89,1.72h.02Z"></path>
</svg>