<?xml version="1.0"?>
<svg fill="currentColor" id="Layer_1" data-name="Layer 1" xmlns="http://www.w3.org/2000/svg" viewBox="0 0 1113.13 592.3">
  <g>
    <path d="M1.74,2.88c15-4.47,28.15-1.59,42.37-.47.27,42.36.54,84.22.81,127.05,4.61.94,8.4,2.38,12.15,2.36,17.74-.15,35.45-.89,53.17-1.04,11.62-.08,23.23.49,35.72.79v33.73c-3.36.15-6.91.4-10.46.45-16.74.24-33.49.3-50.22.62-24.75.47-49.51,1.12-74.25,1.68-2.97.06-5.94,0-10.04,0-.38-4.21-1.04-7.71-.98-11.2.35-19.32,1.05-38.65,1.28-57.98.32-28.34.32-56.7.45-85.06V2.87v.02Z"></path>
    <path d="M190.28,2.67c27.64-3.59,34.5-3.57,43.88.13,2.16,54.22-3.33,108.63-1.37,164.11-14.65,2.26-28.23.52-41.12.89-3.87-3.6-2.95-7.51-2.92-11.01.28-22.65.92-45.28,1.15-67.92.27-24.66.25-49.33.37-73.98V2.67Z"></path>
    <path d="M473.8,1.18v33.57c-2.99.22-5.9.57-8.8.6-18.76.21-37.53.32-56.29.52-12.5.13-13.24.89-13.24,12.99-.04,35.38-.05,70.77-.07,106.15v11.93c-14.8.54-28.58,2.55-43.06-1.71-.2-4.36-.54-8.28-.55-12.19-.2-31.04-.23-62.08-.57-93.12-.08-7.61-1.07-15.21-1.69-23.5-23.97-1.52-47.35.08-70.44-.81-2.2-7.92-2.3-23.67-.17-34.06,3.5-.45,7.36-1.41,11.21-1.37,17.74.17,35.47.85,53.21.94,32.11.15,64.25.05,96.36-.07,7.02-.03,14.03-.74,21.06-.8,4.2-.04,8.41.59,13.07.95l-.02-.04Z"></path>
    <path d="M712.94,1.75v33.57c-2.99.22-5.9.57-8.8.6-18.76.21-37.53.32-56.29.52-12.5.13-13.24.89-13.24,12.99-.04,35.38-.05,70.77-.07,106.15v11.93c-14.8.54-28.58,2.55-43.06-1.71-.2-4.36-.54-8.28-.55-12.19-.2-31.04-.23-62.08-.57-93.12-.08-7.61-1.07-15.21-1.69-23.5-23.97-1.52-47.35.08-70.44-.81-2.2-7.92-2.3-23.67-.17-34.06,3.5-.45,7.36-1.41,11.21-1.37,17.74.17,35.47.85,53.21.94,32.11.15,64.25.05,96.36-.07,7.02-.03,14.03-.74,21.06-.8,4.2-.04,8.41.59,13.07.95l-.02-.04Z"></path>
    <path d="M757.39,2.88c15-4.47,28.15-1.59,42.37-.47.27,42.36.54,84.22.81,127.05,4.61.94,8.4,2.38,12.15,2.36,17.74-.15,35.45-.89,53.17-1.04,11.62-.08,23.23.49,35.72.79v33.73c-3.36.15-6.91.4-10.46.45-16.74.24-33.49.3-50.22.62-24.75.47-49.51,1.12-74.25,1.68-2.97.06-5.94,0-10.04,0-.38-4.21-1.04-7.71-.98-11.2.35-19.32,1.06-38.65,1.28-57.98.32-28.34.32-56.7.45-85.06V2.87v.02Z"></path>
    <path d="M1110.43,3v34.34c-2.98.18-6.2.54-9.42.54-32.17.07-64.32.07-96.48.1-4.64,0-9.4-.5-13.8,3.19v22.2c24.81,4.88,49.97,1.68,74.71,3.37,4.51,8.25,4.76,24.24.22,35.63-7.54,0-15.52-.15-23.5.04-15.04.35-30.07.72-45.11,1.44-7.52.37-8.66,1.19-9.43,8.83-.59,5.84.53,11.82.92,18.12,2.38.54,4.26,1.34,6.11,1.29,21.76-.42,43.49-1.08,65.25-1.45,16.07-.26,32.15-.22,48.22-.22,1.25,0,2.53.6,4.67,1.15,0,11.22,1.21,22.31-.99,34.17-55.9-.82-110.92,2.62-166.96,2.29-.9-28.25-.55-55.5-.08-82.75.47-27.28,1.32-54.56,2.04-82.88,3.2-.25,6.44-.74,9.65-.74,20.77-.05,41.53.04,62.31.04s42.19,0,63.27-.1c4.01-.02,8-.64,11.99-.99,5.33-.49,10.66-.9,16.38,2.36l.03.02Z"></path>
  </g>
  <g>
    <path d="M279.02,210.74v11.42c.1,38.24.19,76.47.3,114.71.03,11.46.15,22.91.15,34.37,0,1.94-.49,3.89-.88,6.79-13.97-.37-27.66,2.5-41.41-1.66-1.38-25.65,1.1-50.73-3.58-76.06-4.29,1.29-5.18,5.07-6.82,8.02-10.42,18.99-21.13,37.83-30.92,57.13-4.08,8.04-9.25,11.8-18.26,11.17-7.04-.49-14.14-.1-21.37-.1-14.17-25.91-28.08-51.36-42.28-77.28-4.65,9.28-5.86,17.61-5.86,37.67v39.14c-14.05,4.74-27.75-1.05-42.37,1.24-1.73-56.07,1.02-111,1.26-166.13,19.45-4.3,38.32-1.79,58.16-.8,2.28,3.82,5.05,8.02,7.38,12.44,10.22,19.48,20.23,39.05,30.47,58.52,1.69,3.25,3.74,6.51,6.32,9.08,4.47,4.44,10.24,3.76,13.99-1.33,1.6-2.15,2.73-4.68,3.83-7.14,9.21-20.31,18.38-40.68,27.57-60.99,1.53-3.37,3.2-6.67,4.68-9.76,17.85-3.4,39.47-3.65,59.6-.49l.04.05Z"></path>
    <path d="M417.87,379.56c-8.25,1.57-17.37-1.12-26.71-2.99-18.29-3.65-32.15-13.84-43.57-27.9-3.62-4.47-6.97-9.16-10.4-13.78-4.98-6.7-6.8-14.4-8.29-22.54-2.93-15.93-2.51-31.15,2.51-46.82,5.22-16.32,14.91-28.97,28.02-38.85,9.89-7.46,20.99-13.06,33.18-17.09,12.74-4.22,24.23-2.27,36.62-.15,14.24,2.44,26.18,8.38,37.47,16.96,13.38,10.19,22.86,23.11,29.11,38.39,4.15,10.12,6,20.72,4.01,31.76-1.02,5.65-1.62,11.35-2.44,17.02-3.11,21.57-16.28,36.76-32.5,49.73-5.51,4.4-11.92,7.8-18.23,11.06-10.19,5.29-12.19,5.44-28.8,5.2h.02ZM459.03,292.76c-.21-3.03-.09-6.14-.66-9.1-1.91-9.69-4.12-19.96-12.91-25.53-24.26-15.42-39.73-15.93-61.34-2.11-15.73,10.07-21.43,26.44-17.78,44.66,2.67,13.28,8.12,22.87,20.21,30.64,21.18,13.59,47.13,11.27,62.66-8.32,6.99-8.82,10.02-19.02,9.79-30.24h.02Z"></path>
    <path d="M543.54,210.63c14.88-.35,28.48-4.37,42.1-.32,8.23,19.57,12.67,39.7,18.11,59.52,5.71,20.84,11.64,41.6,17.56,62.39.73,2.58,1.58,5.22,2.94,7.5,2.35,3.94,6.26,4.78,10.61,4.46,4.37-.33,5.27-3.4,6.15-6.87,3.9-15.37,8.23-30.63,11.85-46.07,5.62-23.99,10.78-48.08,16.2-72.1.65-2.89,1.8-5.66,2.83-8.86h40.34c.94,5.3-.48,9.75-1.6,14.21-10.01,39.59-20.21,79.13-30,118.78-2.84,11.45-4.69,23.14-9.85,34.58-2.46.2-5.1.58-7.71.58-20.04.1-40.11.15-60.15.19-9.43.02-9.57-.04-12.35-8.52-8.7-26.66-17.74-53.19-25.92-80.01-7.38-24.21-13.82-48.69-20.6-73.07-.43-1.53-.27-3.23-.5-6.43v.03Z"></path>
    <path d="M767.25,211.02c28.03-3.64,34.99-3.62,44.51.13,2.19,55-3.38,110.18-1.39,166.46-14.86,2.29-28.63.52-41.71.9-3.93-3.65-2.99-7.61-2.96-11.17.29-22.97.94-45.92,1.17-68.89.27-25.01.26-50.04.37-75.04v-12.39Z"></path>
    <path d="M1045.24,211.22v34.83c-3.02.19-6.29.55-9.55.55-32.62.07-65.23.07-97.86.1-4.71,0-9.53-.51-13.99,3.23v22.52c25.17,4.95,50.69,1.7,75.78,3.42,4.58,8.36,4.83,24.58.22,36.14-7.64,0-15.74-.15-23.83.04-15.25.36-30.5.73-45.75,1.46-7.63.37-8.78,1.21-9.57,8.96-.6,5.92.54,11.99.93,18.38,2.41.55,4.32,1.36,6.19,1.31,22.07-.43,44.11-1.09,66.18-1.47,16.3-.27,32.61-.22,48.91-.22,1.27,0,2.57.61,4.74,1.17,0,11.38,1.23,22.63-1,34.66-56.7-.83-112.51,2.65-169.35,2.32-.91-28.65-.55-56.29-.08-83.94.48-27.67,1.34-55.34,2.07-84.07,3.25-.26,6.53-.75,9.79-.75,21.07-.05,42.13.04,63.2.04s42.79,0,64.17-.1c4.07-.02,8.11-.65,12.16-1.01,5.4-.49,10.82-.91,16.61,2.4l.03.02Z"></path>
  </g>
  <g>
    <path d="M163.88,497.63c17.99,11.99,25.54,29.35,22.39,51.59-.97,6.99-4.95,13.45-12.44,20.27-12.1,11.02-27.38,17.92-46.7,21.07-6.88,1.12-13.57,1.67-20.11,1.67-17.23,0-33.16-3.87-47.62-11.6-10.62-5.68-18.64-13.71-23.92-23.87-1.14-2.2-2.01-4.61-2.49-6.95-.91-4.39,1.21-7.96,5.54-9.29,5.32-1.65,10.7-3.21,16.06-4.77l5.41-1.59c5.67-1.67,8.86,2.6,10,4.22.8,1.11,1.57,2.25,2.32,3.42,1.81,2.74,3.51,5.32,5.73,7.34,11.39,10.34,37.42,14.71,53.96,4.88,6.03-3.6,9.63-9.01,11.34-17.05.65-3.09-.39-5.89-3.31-8.84-5.39-5.5-12.4-8.62-21.33-9.54-6.14-.65-12.3-1.25-18.46-1.83-7.41-.71-14.79-1.42-22.17-2.22-15.25-1.66-27.46-7.94-37.35-19.19-10.05-11.44-8.74-24.16-6.16-35.1,3.07-12.97,13.01-21.36,21.3-27.22,12.41-8.79,27.64-13.57,45.2-14.21,9.53-.32,18.85.33,27.87,1.97,18.25,3.32,33.36,13.99,46.16,32.6.67.96.96,2.01,1.29,3.13.1.44.24.9.42,1.41l.48,1.43-1.28.87c-6.47,4.37-13.66,6.96-20.59,9.47l-3.87,1.42c-4.23,1.59-8.59.43-11.66-3.02-.56-.64-1.18-1.25-1.77-1.87-.58-.56-1.13-1.14-1.68-1.74-11.33-12.4-26.18-15.85-46.53-10.95-6.66,1.6-10.53,6.18-11.81,13.96-.64,3.8.02,7.06,1.83,9.4,1.77,2.29,4.73,3.76,8.57,4.25,10.34,1.33,19.37,1.98,27.55,1.98h1.03c16.63,0,32.36,4.86,46.79,14.47v.02Z"></path>
    <path d="M419,421.09v34.19c-3.04.22-6.01.58-8.96.61-19.11.21-38.22.33-57.32.53-12.73.13-13.49.9-13.49,13.23-.04,36.03-.05,72.07-.07,108.1v12.15c-15.07.55-29.1,2.6-43.85-1.74-.2-4.44-.55-8.43-.56-12.41-.2-31.61-.24-63.22-.58-94.84-.09-7.75-1.09-15.48-1.72-23.93-24.41-1.55-48.22.09-71.74-.82-2.24-8.07-2.34-24.1-.17-34.69,3.57-.45,7.5-1.43,11.42-1.4,18.06.17,36.12.87,54.18.96,32.7.15,65.43.05,98.13-.07,7.15-.03,14.29-.75,21.44-.82,4.28-.04,8.56.6,13.31.97l-.02-.04Z"></path>
    <path d="M542.18,591.83c-8.28,1.58-17.44-1.12-26.82-3-18.36-3.67-32.28-13.89-43.75-28.01-3.63-4.48-6.99-9.2-10.44-13.84-5-6.73-6.83-14.46-8.33-22.63-2.94-15.99-2.52-31.27,2.52-47.01,5.24-16.39,14.97-29.09,28.13-39.01,9.93-7.49,21.07-13.11,33.31-17.15,12.79-4.23,24.33-2.28,36.77-.15,14.3,2.45,26.29,8.41,37.62,17.03,13.44,10.23,22.95,23.2,29.23,38.54,4.16,10.16,6.02,20.81,4.03,31.89-1.03,5.67-1.62,11.39-2.45,17.09-3.12,21.65-16.35,36.9-32.63,49.93-5.54,4.42-11.97,7.83-18.3,11.11-10.22,5.31-12.24,5.46-28.91,5.22h.02ZM583.51,504.68c-.21-3.04-.09-6.16-.67-9.13-1.91-9.73-4.13-20.04-12.96-25.64-24.36-15.48-39.89-15.99-61.59-2.12-15.79,10.11-21.52,26.55-17.85,44.84,2.68,13.34,8.15,22.96,20.29,30.77,21.27,13.65,47.32,11.31,62.92-8.35,7.02-8.86,10.06-19.1,9.83-30.37h.02Z"></path>
    <path d="M820.57,524.29c8.66,22.2,21.73,42.5,31.7,65.86-10.58,1.06-19.65.38-28.73-.2-4.05-.26-8.23-.88-12.15-.21-4.7.79-6.99-.99-8.73-4.89-6.9-15.5-13.91-30.97-20.88-46.43-.83-1.87-1.77-3.67-2.47-5.58-1.66-4.58-4.42-7.38-9.68-7.58-6.77-.27-13.53-1.43-20.29-1.4-7.45.03-14.89,1-22.38,1.57-4.08,4.01-4.38,8.98-4.37,14.15.05,13.59.02,27.17-.05,40.76,0,2.97-.37,5.92-.54,8.62-8.26,2.2-28.64,2.68-41.7,1.1-.26-2.12-.8-4.39-.78-6.66.19-34.65.48-69.31.67-103.94.07-13.56-.07-27.09-.12-40.64,0-2.38-.1-4.76-.07-7.13.1-8.96.65-9.53,10-10.09,2.38-.15,4.76-.22,7.15-.27,19.73-.48,39.48-1.59,59.21-1.27,18.35.31,36.9.81,54.95,3.71,21.61,3.5,36.68,17.23,41.56,38.54,4.27,18.57-1.48,37.02-19.98,51.07-4.27,3.25-9.58,5.31-12.31,10.91v.02ZM724.59,457.07c.39,5.03.68,9.37,1.09,13.67.45,4.6,1.03,9.2,1.52,13.65,21.22,0,41.62.2,61.99-.13,5.35-.09,10.87-1.23,15.91-3.03,8.51-3.03,10.04-9.76,4.63-16.79-4.19-5.44-9.56-8.4-16.59-8.45-7.83-.05-15.72.17-23.47-.71-14.67-1.69-29.1-.84-45.1,1.8h.02Z"></path>
    <path d="M1077.65,422.81v34.98c-3.03.19-6.31.55-9.59.55-32.76.07-65.5.07-98.25.1-4.73,0-9.57-.51-14.05,3.25v22.61c25.27,4.97,50.89,1.71,76.08,3.43,4.59,8.4,4.85,24.68.22,36.28-7.68,0-15.81-.15-23.93.04-15.31.36-30.62.73-45.94,1.47-7.66.38-8.82,1.22-9.6,8.99-.6,5.94.54,12.03.93,18.46,2.42.55,4.34,1.36,6.22,1.32,22.16-.43,44.29-1.1,66.45-1.47,16.37-.27,32.74-.22,49.11-.22,1.28,0,2.58.61,4.76,1.18,0,11.42,1.23,22.72-1,34.8-56.93-.83-112.96,2.67-170.03,2.33-.92-28.77-.56-56.52-.08-84.28.48-27.79,1.35-55.56,2.08-84.41,3.26-.26,6.55-.75,9.83-.75,21.15-.05,42.3.04,63.45.04s42.96,0,64.43-.1c4.08-.02,8.15-.65,12.21-1.01,5.43-.49,10.86-.92,16.68,2.41l.03.02Z"></path>
  </g>
</svg>