<?xml version="1.0"?>
<svg fill="#fff9ef" id="Layer_1" data-name="Layer 1" xmlns="http://www.w3.org/2000/svg" viewBox="0 0 472.77 485.14">
  <path d="M346.52,82.48c-37.45,0-70.99,16.4-94.1,42.29C251.62,55.74,195.47,0,126.25,0S0,56.52,0,126.25c0,61.35,43.78,112.44,101.79,123.83-37.33,21.93-62.46,62.39-62.46,108.81,0,69.72,56.52,126.25,126.25,126.25s126.25-56.52,126.25-126.25c0-13.91-2.34-27.26-6.5-39.78,18.13,10.07,38.98,15.85,61.19,15.85,69.72,0,126.25-56.52,126.25-126.24s-56.52-126.25-126.25-126.25ZM220.35,210.2c.16,13.38,2.41,26.23,6.42,38.3-11.3-6.28-23.65-10.87-36.73-13.44,11.37-6.68,21.58-15.08,30.31-24.86ZM65.55,48.58c1.22-4.48,34.53-3.33,40.51-1.12v115.96l3.14,2.34,90.52.39v32.87l-133.81,1.57-.37-152.02ZM238.19,401.24c-.92,6.64-4.7,12.77-11.82,19.26-11.49,10.47-26.01,17.03-44.36,20.01-6.54,1.07-12.89,1.59-19.11,1.59-16.37,0-31.51-3.68-45.25-11.02-10.09-5.4-17.71-13.03-22.73-22.67-1.08-2.09-1.91-4.38-2.36-6.6-.86-4.17,1.15-7.56,5.27-8.83,5.06-1.57,10.17-3.05,15.26-4.54l5.14-1.51c5.39-1.59,8.42,2.47,9.51,4.01.76,1.06,1.49,2.14,2.2,3.25,1.72,2.61,3.34,5.06,5.45,6.97,10.82,9.82,35.55,13.97,51.26,4.63,5.73-3.42,9.15-8.56,10.77-16.2.62-2.93-.37-5.59-3.14-8.39-5.12-5.22-11.78-8.19-20.26-9.07-5.83-.62-11.69-1.19-17.54-1.74-7.04-.67-14.05-1.35-21.07-2.11-14.49-1.58-26.09-7.54-35.48-18.23-9.55-10.86-8.31-22.95-5.86-33.35,2.92-12.32,12.36-20.3,20.24-25.86,11.79-8.35,26.26-12.89,42.94-13.5,9.05-.3,17.91.32,26.48,1.87,17.34,3.16,31.69,13.29,43.85,30.97.63.91.91,1.91,1.22,2.97.1.42.22.86.4,1.34l.45,1.36-1.21.83c-6.15,4.15-12.98,6.62-19.56,9l-3.68,1.35c-4.02,1.51-8.16.41-11.08-2.87-.54-.6-1.12-1.19-1.68-1.77-.55-.53-1.07-1.08-1.59-1.65-10.76-11.78-24.87-15.06-44.21-10.4-6.32,1.52-10,5.87-11.22,13.27-.6,3.61.02,6.71,1.74,8.93,1.68,2.18,4.49,3.57,8.14,4.04,9.82,1.27,18.4,1.89,26.18,1.89h.98c15.8,0,30.75,4.62,44.45,13.75h0c17.1,11.4,24.26,27.9,21.28,49.03ZM429.32,274.53c-10.88-.29-21.55,1.95-32.26-1.29-1.08-19.99.86-39.52-2.79-59.26-3.35,1-4.04,3.95-5.31,6.25-8.12,14.8-16.46,29.47-24.09,44.51-3.18,6.26-7.2,9.19-14.22,8.7-5.48-.38-11.02-.08-16.65-.08-11.04-20.19-21.88-40.02-32.94-60.21-3.62,7.23-4.57,13.72-4.57,29.35v30.49c-10.94,3.69-21.62-.82-33.01.97-1.35-43.68.8-86.49.98-129.44,15.16-3.35,29.86-1.39,45.31-.62,1.78,2.98,3.94,6.25,5.75,9.69,7.96,15.18,15.76,30.43,23.74,45.6,1.32,2.53,2.91,5.07,4.92,7.07,3.49,3.46,7.98,2.92,10.9-1.03,1.25-1.67,2.12-3.65,2.98-5.57,7.18-15.82,14.32-31.7,21.48-47.52,1.19-2.62,2.49-5.2,3.64-7.6,13.91-2.65,30.75-2.85,46.44-.39l.03.04v8.9c.08,29.79.14,59.58.24,89.37.03,8.93.12,17.85.12,26.78,0,1.51-.38,3.03-.69,5.28Z"></path>
</svg>