<?xml version="1.0"?>
<svg fill="currentColor" id="Layer_1" data-name="Layer 1" xmlns="http://www.w3.org/2000/svg" viewBox="0 0 569 630.74">
  <path d="M252.08,257.04c-3.25-2.68-41.46-2.75-43.48-.38l-.33,117.63c11.23-.79,15.63.38,30.79-1.05l.57-45.01c.46-7.54,1.35-6.58,2.01-7.71l31.26,53.04c.28.48.83.76,1.38.74,7.99-.27,11.6.03,23.73-.36,1.16-.04,1.12-.65,2.48-2.54,8.44-11.75,24.26-50.82,26.78-50.95,1.49,3.47,1.99,7.17,2.85,10.82.89,3.77.72,7.6.72,11.46v33.04c2.37.01,4.22-.09,4.99-.09h24.94v-119.02c-13.49-2.38-28.91-2.31-42.42.32-2.84,2.03-18.9,43-22.89,50.22-2.8,5.08-4.97,9.86-11.63,6.82l-31.74-57Z"></path>
  <path d="M569,118.93C569,52.24,444.04,0,284.5,0S0,52.24,0,118.93c0,41.26,47.87,76.97,122.15,98.22C47.87,238.4,0,274.12,0,315.37s47.87,76.97,122.14,98.22C47.87,434.84,0,470.55,0,511.81c0,66.69,124.96,118.93,284.5,118.93s284.5-52.24,284.5-118.93c0-41.26-47.87-76.97-122.14-98.22,74.27-21.25,122.14-56.96,122.14-98.22s-47.87-76.97-122.14-98.22c74.27-21.25,122.14-56.96,122.14-98.22ZM551.61,511.81c0,55.03-122.32,101.53-267.1,101.53S17.39,566.85,17.39,511.81c0-37.97,58.24-71.87,141.9-89.25,37.6,7.53,80.01,11.73,125.21,11.73s87.61-4.2,125.21-11.73c83.66,17.38,141.89,51.28,141.89,89.25ZM218.21,413.59c21.28-2.16,43.51-3.31,66.29-3.31s45.01,1.15,66.29,3.31c-21.28,2.16-43.51,3.31-66.29,3.31s-45.01-1.15-66.29-3.31ZM551.61,315.37c0,37.97-58.24,71.87-141.89,89.24-37.59-7.53-80.01-11.73-125.21-11.73s-87.62,4.2-125.21,11.73c-83.66-17.38-141.9-51.27-141.9-89.24s58.24-71.87,141.9-89.25c37.59,7.53,80.01,11.73,125.21,11.73s87.61-4.2,125.2-11.73c83.66,17.38,141.9,51.28,141.9,89.25ZM218.21,217.15c21.28-2.16,43.51-3.31,66.29-3.31s45.01,1.15,66.29,3.31c-21.28,2.16-43.51,3.31-66.29,3.31s-45.01-1.15-66.29-3.31ZM409.71,208.18c-37.59-7.53-80.01-11.73-125.2-11.73s-87.62,4.2-125.21,11.73C75.63,190.8,17.39,156.9,17.39,118.93c0-55.03,122.32-101.53,267.11-101.53s267.1,46.5,267.1,101.53c0,37.97-58.24,71.87-141.9,89.25Z"></path>
  <path d="M229.35,45.28c11.61-3.46,21.8-1.23,32.8-.36.21,32.79.42,65.2.63,98.36,3.57.73,6.5,1.84,9.41,1.83,13.73-.12,27.45-.69,41.16-.8,8.99-.07,17.99.38,27.66.61v26.11c-2.6.11-5.35.31-8.1.35-12.96.18-25.93.23-38.88.48-19.16.36-38.33.87-57.48,1.3-2.3.05-4.6,0-7.77,0-.3-3.26-.8-5.97-.76-8.67.27-14.96.82-29.92.99-44.89.24-21.94.24-43.9.35-65.85v-8.47h0Z"></path>
  <path d="M326.29,514.19c13.92,9.27,19.75,22.7,17.32,39.9-.75,5.41-3.83,10.4-9.62,15.68-9.36,8.53-21.18,13.86-36.12,16.3-5.32.87-10.5,1.29-15.56,1.29-13.32,0-25.65-3-36.84-8.98-8.22-4.4-14.42-10.61-18.5-18.46-.88-1.7-1.55-3.57-1.92-5.37-.7-3.4.93-6.16,4.29-7.19,4.12-1.28,8.28-2.48,12.43-3.69l4.18-1.23c4.38-1.29,6.85,2.01,7.74,3.26.62.86,1.21,1.74,1.8,2.64,1.4,2.12,2.72,4.12,4.43,5.68,8.81,8,28.95,11.38,41.74,3.77,4.66-2.78,7.45-6.97,8.77-13.19.5-2.39-.3-4.55-2.56-6.83-4.17-4.25-9.59-6.67-16.5-7.38-4.75-.5-9.52-.96-14.28-1.41-5.73-.55-11.44-1.1-17.15-1.72-11.8-1.29-21.24-6.14-28.89-14.84-7.77-8.85-6.76-18.68-4.77-27.15,2.38-10.03,10.06-16.53,16.48-21.06,9.6-6.8,21.38-10.5,34.96-10.99,7.37-.25,14.58.25,21.56,1.52,14.12,2.57,25.8,10.83,35.7,25.22.52.74.74,1.56.99,2.42.08.34.18.7.33,1.09l.37,1.11-.99.67c-5,3.38-10.56,5.39-15.93,7.33l-3,1.1c-3.27,1.23-6.64.33-9.02-2.33-.44-.49-.91-.96-1.37-1.44-.45-.43-.87-.88-1.3-1.35-8.76-9.59-20.25-12.26-35.99-8.47-5.15,1.24-8.14,4.78-9.13,10.8-.49,2.94.01,5.46,1.41,7.27,1.37,1.77,3.66,2.9,6.63,3.29,8,1.03,14.99,1.53,21.31,1.53h.8c12.86,0,25.03,3.76,36.19,11.2h0Z"></path>
</svg>