<?xml version="1.0"?>
<svg id="Layer_1" data-name="Layer 1" xmlns="http://www.w3.org/2000/svg" viewBox="0 0 966.25 485.36">
  <path d="M958.3,0H7.94C3.56,0,0,3.56,0,7.95v469.46c0,4.39,3.56,7.95,7.94,7.95h950.36c4.39,0,7.94-3.56,7.94-7.95V7.95C966.25,3.56,962.69,0,958.3,0ZM249.33,358.37c0,1.35-1.09,2.43-2.43,2.43H70.11c-49.39-71-49.39-165.24,0-236.24h176.78c1.34,0,2.43,1.09,2.43,2.43v231.37ZM681.71,359.2c0,.89-.72,1.6-1.6,1.6h-393.97c-.88,0-1.6-.71-1.6-1.6V126.15c0-.88.72-1.6,1.6-1.6h393.97c.88,0,1.6.71,1.6,1.6v233.05ZM893.63,360.8h-176.78c-1.34,0-2.43-1.08-2.43-2.43V126.99c0-1.35,1.09-2.43,2.43-2.43h176.78c49.39,71,49.39,165.24,0,236.24Z"></path>
  <path d="M127.55,280.08v-107.46c-5.55-2.05-36.41-3.11-37.54,1.04l.34,140.87,123.99-1.46v-30.46l-83.88-.37-2.91-2.17Z"></path>
  <path d="M573.23,172.74v9.65c.09,32.29.16,64.58.26,96.87.03,9.67.13,19.35.13,29.03,0,1.64-.42,3.28-.75,5.73-11.8-.32-23.36,2.11-34.97-1.4-1.17-21.66.93-42.84-3.02-64.23-3.63,1.09-4.38,4.28-5.76,6.77-8.8,16.04-17.84,31.95-26.11,48.24-3.44,6.79-7.81,9.96-15.42,9.43-5.94-.42-11.94-.09-18.05-.09-11.97-21.88-23.71-43.37-35.7-65.26-3.92,7.83-4.95,14.87-4.95,31.81v33.05c-11.86,4-23.44-.89-35.78,1.05-1.46-47.35.86-93.74,1.06-140.3,16.43-3.63,32.37-1.51,49.12-.67,1.93,3.22,4.27,6.77,6.23,10.5,8.63,16.45,17.09,32.98,25.73,49.42,1.43,2.74,3.16,5.5,5.33,7.67,3.78,3.75,8.65,3.17,11.82-1.12,1.35-1.81,2.3-3.95,3.23-6.03,7.78-17.15,15.52-34.36,23.28-51.51,1.29-2.84,2.7-5.63,3.95-8.24,15.07-2.87,33.33-3.09,50.34-.42l.03.04Z"></path>
  <path d="M867.3,236.17c14.91,9.93,21.15,24.31,18.55,42.74-.81,5.79-4.1,11.14-10.31,16.8-10.02,9.13-22.68,14.85-38.68,17.45-5.7.93-11.24,1.38-16.66,1.38-14.27,0-27.47-3.21-39.45-9.61-8.8-4.71-15.44-11.36-19.82-19.77-.94-1.83-1.66-3.82-2.06-5.75-.75-3.64,1-6.59,4.59-7.7,4.41-1.37,8.87-2.66,13.31-3.96l4.48-1.32c4.7-1.38,7.34,2.15,8.29,3.49.66.92,1.3,1.86,1.92,2.83,1.5,2.27,2.91,4.41,4.75,6.08,9.44,8.57,31,12.18,44.7,4.04,4.99-2.98,7.98-7.46,9.39-14.13.54-2.56-.32-4.88-2.74-7.32-4.47-4.55-10.27-7.14-17.67-7.9-5.09-.54-10.19-1.03-15.3-1.51-6.14-.58-12.25-1.18-18.37-1.84-12.63-1.38-22.75-6.58-30.94-15.89-8.33-9.48-7.24-20.01-5.1-29.08,2.55-10.74,10.78-17.7,17.65-22.55,10.28-7.28,22.89-11.24,37.44-11.77,7.89-.27,15.61.27,23.09,1.63,15.12,2.75,27.64,11.59,38.24,27.01.55.79.79,1.67,1.07,2.59.08.36.19.75.35,1.17l.4,1.19-1.06.72c-5.36,3.62-11.31,5.77-17.06,7.85l-3.21,1.18c-3.51,1.32-7.11.36-9.66-2.5-.47-.53-.97-1.03-1.47-1.55-.48-.46-.94-.94-1.39-1.44-9.39-10.27-21.69-13.13-38.55-9.07-5.51,1.32-8.72,5.12-9.78,11.57-.53,3.15.01,5.85,1.51,7.79,1.47,1.9,3.92,3.11,7.1,3.52,8.57,1.1,16.05,1.64,22.82,1.64h.86c13.78,0,26.81,4.03,38.76,11.99h0Z"></path>
</svg>